<svg xmlns="http://www.w3.org/2000/svg" enable-background="new 0 0 100 100" viewBox="15.1 13.8 69.62 72.6"><path fill="#fff" d="M31.4,60.8C31.4,68.1,39.7,74,50,74c10.3,0,18.6-5.9,18.6-13.2c0-5.2-4.5-10.1-11.1-12.3c2.5-2.3,4.1-5.8,4.1-9.7   c0-7-5.2-12.8-11.7-12.8s-11.7,5.7-11.7,12.8c0,3.9,1.6,7.4,4.1,9.7C35.9,50.7,31.4,55.5,31.4,60.8z M40.3,38.8   c0-5.9,4.3-10.8,9.7-10.8s9.7,4.8,9.7,10.8S55.3,49.6,50,49.6S40.3,44.7,40.3,38.8z M44.4,50c1.7,1,3.6,1.6,5.6,1.6   c2,0,3.9-0.6,5.6-1.6c6.4,1.7,11,6.1,11,10.8C66.6,67,59.2,72,50,72s-16.6-5-16.6-11.2C33.4,56.1,38,51.7,44.4,50z"/><path fill="#fff" d="M16 40c.5.2 1.1-.1 1.3-.6 4.6-14.1 17.7-23.6 32.6-23.6 13.3 0 25.2 7.6 30.8 19.3L76 30.2c-.4-.4-1-.4-1.4 0-.4.4-.4 1 0 1.4l8.1 8.4c0 0 0 0 0 0 0 0 0 0 .1.1.1 0 .1.1.2.1 0 0 0 0 .1 0 0 0 0 0 0 0 .1 0 .2.1.3.1 0 0 0 0 0 0 0 0 .1 0 .1 0 0 0 0 0 .1 0 0 0 .1 0 .1 0 0 0 0 0 0 0 0 0 .1 0 .1 0 .1 0 .1-.1.1-.1 0 0 .1 0 .1-.1 0 0 0 0 0 0 0 0 0 0 0-.1 0 0 .1-.1.1-.1 0 0 .1-.1.1-.1 0 0 0-.1 0-.1 0 0 0-.1 0-.1 0 0 0-.1 0-.1 0 0 0-.1 0-.1 0 0 0 0 0-.1l-1.4-11.9c-.1-.5-.6-.9-1.1-.9-.5.1-.9.6-.9 1.1l.6 5.1c-6.2-11.5-18.3-18.9-31.8-18.9-15.7 0-29.6 10-34.5 25C15.2 39.2 15.5 39.8 16 40zM84 60c-.5-.2-1.1.1-1.3.6-4.6 14.1-17.7 23.6-32.6 23.6-13.2 0-24.9-7.4-30.6-18.9l4.2 4.6c.2.2.5.3.7.3.2 0 .5-.1.7-.3.4-.4.4-1 .1-1.4L17.3 60c0 0 0 0-.1 0 0 0-.1-.1-.1-.1 0 0-.1 0-.1-.1 0 0-.1 0-.1 0-.1 0-.1 0-.2 0 0 0-.1 0-.1 0 0 0-.1 0-.1 0 0 0 0 0-.1 0 0 0-.1 0-.1 0 0 0-.1 0-.1 0 0 0 0 0 0 0 0 0-.1 0-.1 0-.1 0-.1.1-.2.1 0 0-.1 0-.1.1 0 0 0 0 0 0 0 0 0 0 0 .1 0 0-.1.1-.1.1 0 0 0 .1-.1.1 0 0 0 .1 0 .1 0 .1 0 .1 0 .2 0 0 0 .1 0 .1 0 0 0 .1 0 .1 0 0 0 0 0 .1l1.4 11.9c.1.5.5.9 1 .9 0 0 .1 0 .1 0 .5-.1.9-.6.9-1.1l-.6-5.1c6.2 11.5 18.3 18.9 31.8 18.9 15.7 0 29.6-10 34.5-25C84.8 60.8 84.5 60.2 84 60z"/></svg>