<svg version="1.1" viewBox="0.0 0.0 106.55905511811024 106.55905511811024" fill="none" stroke="none" stroke-linecap="square" stroke-miterlimit="10" xmlns:xlink="http://www.w3.org/1999/xlink" xmlns="http://www.w3.org/2000/svg"><clipPath id="p.0"><path d="m0 0l106.55905 0l0 106.55905l-106.55905 0l0 -106.55905z" clip-rule="nonzero"/></clipPath><g clip-path="url(#p.0)"><path fill="#000000" fill-opacity="0.0" d="m0 0l106.55905 0l0 106.55905l-106.55905 0z" fill-rule="evenodd"/><path fill="#000000" fill-opacity="0.0" d="m5.2795315 53.279274l0 0c0 -26.509668 21.490332 -48.0 48.0 -48.0l0 0c12.730392 0 24.939377 5.0571284 33.941124 14.058874c9.001747 9.001747 14.058876 21.210733 14.058876 33.941124l0 0c0 26.509666 -21.490334 48.0 -48.0 48.0l0 0c-26.50967 0 -48.0 -21.490334 -48.0 -48.0z" fill-rule="evenodd"/><path stroke="#cc0000" stroke-width="8.0" stroke-linejoin="round" stroke-linecap="butt" d="m5.2795315 53.279274l0 0c0 -26.509668 21.490332 -48.0 48.0 -48.0l0 0c12.730392 0 24.939377 5.0571284 33.941124 14.058874c9.001747 9.001747 14.058876 21.210733 14.058876 33.941124l0 0c0 26.509666 -21.490334 48.0 -48.0 48.0l0 0c-26.50967 0 -48.0 -21.490334 -48.0 -48.0z" fill-rule="evenodd"/><path fill="#cc0000" d="m17.279528 50.680435l0 0c0 -1.7492561 1.4180546 -3.1673126 3.1673126 -3.1673126l65.665375 0c0.84002686 0 1.6456451 0.33369827 2.2396317 0.9276848c0.5939865 0.5939865 0.92768097 1.3996048 0.92768097 2.2396278l0 5.192936c0 1.7492561 -1.4180527 3.1673126 -3.1673126 3.1673126l-65.665375 0c-1.749258 0 -3.1673126 -1.4180565 -3.1673126 -3.1673126z" fill-rule="evenodd"/><path stroke="#cc0000" stroke-width="1.0" stroke-linejoin="round" stroke-linecap="butt" d="m17.279528 50.680435l0 0c0 -1.7492561 1.4180546 -3.1673126 3.1673126 -3.1673126l65.665375 0c0.84002686 0 1.6456451 0.33369827 2.2396317 0.9276848c0.5939865 0.5939865 0.92768097 1.3996048 0.92768097 2.2396278l0 5.192936c0 1.7492561 -1.4180527 3.1673126 -3.1673126 3.1673126l-65.665375 0c-1.749258 0 -3.1673126 -1.4180565 -3.1673126 -3.1673126z" fill-rule="evenodd"/></g></svg>