<svg version="1.1" viewBox="0.0 0.0 106.22572178477691 106.31758530183727" fill="none" stroke="none" stroke-linecap="square" stroke-miterlimit="10" xmlns:xlink="http://www.w3.org/1999/xlink" xmlns="http://www.w3.org/2000/svg"><clipPath id="p.0"><path d="m0 0l106.22572 0l0 106.31759l-106.22572 0l0 -106.31759z" clip-rule="nonzero"/></clipPath><g clip-path="url(#p.0)"><path fill="#000000" fill-opacity="0.0" d="m0 0l106.22572 0l0 106.31759l-106.22572 0z" fill-rule="evenodd"/><path fill="#000000" fill-opacity="0.0" d="m5.1128607 53.158794l0 0c0 -26.50967 21.490334 -48.0 48.0 -48.0l0 0c12.730392 0 24.939377 5.057129 33.941124 14.058874c9.001747 9.001747 14.058876 21.210735 14.058876 33.941128l0 0c0 26.509663 -21.490334 47.999996 -48.0 47.999996l0 0c-26.509668 0 -48.0 -21.490334 -48.0 -47.999996z" fill-rule="evenodd"/><path stroke="#6aa84f" stroke-width="8.0" stroke-linejoin="round" stroke-linecap="butt" d="m5.1128607 53.158794l0 0c0 -26.50967 21.490334 -48.0 48.0 -48.0l0 0c12.730392 0 24.939377 5.057129 33.941124 14.058874c9.001747 9.001747 14.058876 21.210735 14.058876 33.941128l0 0c0 26.509663 -21.490334 47.999996 -48.0 47.999996l0 0c-26.509668 0 -48.0 -21.490334 -48.0 -47.999996z" fill-rule="evenodd"/><path fill="#6aa84f" d="m22.374367 50.043533l27.623238 0l0 -29.544392l6.2305145 0l0 29.544392l27.623238 0l0 6.2305183l-27.623238 0l0 29.544392l-6.2305145 0l0 -29.544392l-27.623238 0z" fill-rule="evenodd"/><path stroke="#6aa84f" stroke-width="4.0" stroke-linejoin="round" stroke-linecap="butt" d="m22.374367 50.043533l27.623238 0l0 -29.544392l6.2305145 0l0 29.544392l27.623238 0l0 6.2305183l-27.623238 0l0 29.544392l-6.2305145 0l0 -29.544392l-27.623238 0z" fill-rule="evenodd"/></g></svg>